<svg id="Capa_1" enable-background="new 0 0 528 528" height="512" viewBox="0 0 528 528" width="512" xmlns="http://www.w3.org/2000/svg"><path d="m132 49.5c0-9.104 7.396-16.5 16.5-16.5h231c9.104 0 16.5 7.396 16.5 16.5v49.5h33v-49.5c0-27.296-22.204-49.5-49.5-49.5h-231c-27.296 0-49.5 22.204-49.5 49.5v49.5h33z"/><path d="m396 429h-264v-33h-33v82.5c0 27.296 22.204 49.5 49.5 49.5h231c27.296 0 49.5-22.204 49.5-49.5v-82.5h-33zm-16.5 66h-231c-9.104 0-16.5-7.396-16.5-16.5v-16.5h264v16.5c0 9.104-7.396 16.5-16.5 16.5z"/><path d="m363 378.476 132-132-132-132v46.664l85.336 85.336-85.336 85.336z"/><path d="m165 317.359-85.336-85.336 85.336-85.336v-46.664l-132 132 132 132z"/></svg>